<svg width="32" height="32" viewBox="0 0 32 32" fill="none" xmlns="http://www.w3.org/2000/svg">
<path d="M27.5467 13.6C27.6747 13.6 27.7853 13.6893 27.8067 13.8147C27.932 14.516 28 15.2707 28 16C28.0037 18.9531 26.9147 21.8031 24.9427 24.0013C24.8969 24.0521 24.8331 24.083 24.7649 24.0875C24.6967 24.092 24.6294 24.0697 24.5773 24.0253L21.3173 21.2653C21.2893 21.2412 21.2663 21.2116 21.25 21.1783C21.2336 21.1451 21.2242 21.1089 21.2222 21.0719C21.2202 21.0349 21.2257 20.9979 21.2384 20.9631C21.2511 20.9283 21.2707 20.8964 21.296 20.8693C21.9525 20.1547 22.4577 19.3148 22.7813 18.4H16.2667C16.1959 18.4 16.1281 18.3719 16.0781 18.3219C16.0281 18.2719 16 18.2041 16 18.1333V13.8667C16 13.72 16.12 13.6 16.2667 13.6H27.5467ZM19.2973 22.4C19.3453 22.3759 19.3993 22.366 19.4527 22.3717C19.5061 22.3774 19.5568 22.3983 19.5987 22.432L23.0227 25.3293C23.0532 25.3548 23.0775 25.3868 23.0938 25.4231C23.1101 25.4594 23.1179 25.4989 23.1166 25.5386C23.1153 25.5783 23.105 25.6172 23.0864 25.6524C23.0678 25.6875 23.0415 25.7179 23.0093 25.7413C20.969 27.2135 18.516 28.004 16 28C14.0002 28.0002 12.032 27.5005 10.2744 26.5465C8.51678 25.5925 7.02547 24.2144 5.936 22.5373C5.90034 22.4819 5.88684 22.415 5.89821 22.35C5.90957 22.2851 5.94496 22.2267 5.99734 22.1867L9.39067 19.5707C9.42187 19.5474 9.45765 19.5309 9.49567 19.5224C9.53368 19.5139 9.57306 19.5135 9.61122 19.5214C9.64938 19.5292 9.68545 19.545 9.71707 19.5677C9.74869 19.5905 9.77514 19.6196 9.79467 19.6533C10.728 21.2384 12.2326 22.4061 13.9997 22.9168C15.7667 23.4276 17.6623 23.2427 19.2973 22.4ZM8.90667 17.2347C8.91596 17.2835 8.9114 17.334 8.89349 17.3805C8.87559 17.4269 8.84505 17.4674 8.80534 17.4973L5.15867 20.3067C5.12649 20.3319 5.08883 20.3493 5.04872 20.3573C5.00861 20.3654 4.96717 20.3639 4.92774 20.353C4.8883 20.3421 4.85198 20.3221 4.82169 20.2946C4.7914 20.2671 4.76799 20.2329 4.75334 20.1947C4.25396 18.8526 3.99883 17.432 4 16C4 14.464 4.28934 12.9947 4.816 11.644C4.83079 11.6068 4.85394 11.5734 4.88366 11.5466C4.91339 11.5197 4.94888 11.5001 4.98741 11.4891C5.02595 11.4782 5.06648 11.4762 5.10588 11.4834C5.14529 11.4906 5.18251 11.5068 5.21467 11.5307L8.85734 14.2027C8.944 14.2653 8.984 14.376 8.96134 14.48C8.76552 15.3861 8.74784 16.3214 8.90667 17.2347ZM9.52934 12.2147C9.65734 12.308 9.83734 12.2707 9.92267 12.1373C10.5729 11.1145 11.4708 10.2724 12.5332 9.68897C13.5955 9.10557 14.788 8.79981 16 8.8C17.6761 8.79944 19.2992 9.38689 20.5867 10.46C20.6386 10.504 20.7052 10.5271 20.7733 10.5246C20.8413 10.5221 20.906 10.4943 20.9547 10.4467L23.976 7.424C24.0013 7.39883 24.0212 7.36876 24.0345 7.33563C24.0478 7.30251 24.0542 7.26702 24.0534 7.23133C24.0525 7.19564 24.0444 7.16051 24.0295 7.12807C24.0145 7.09563 23.9932 7.06657 23.9667 7.04267C21.7765 5.08181 18.9397 3.99834 16 4C14.0262 3.99868 12.0826 4.4848 10.3418 5.41521C8.60101 6.34561 7.11693 7.69149 6.02134 9.33334C5.9845 9.38973 5.97074 9.45813 5.9829 9.52438C5.99506 9.59064 6.03221 9.64969 6.08667 9.68934L9.52934 12.2147Z" fill="white"/>
</svg>
