<svg width="24" height="24" viewBox="0 0 24 24" fill="none" xmlns="http://www.w3.org/2000/svg">
<path fill-rule="evenodd" clip-rule="evenodd" d="M15.35 7.428C14.3383 6.82027 13.1802 6.49947 12 6.5C10.8198 6.49947 9.66174 6.82027 8.65003 7.428C8.59382 7.46195 8.53148 7.48449 8.46656 7.49435C8.40165 7.5042 8.33542 7.50117 8.27167 7.48543C8.20793 7.46969 8.1479 7.44155 8.09503 7.40261C8.04216 7.36368 7.99748 7.31471 7.96353 7.2585C7.92958 7.2023 7.90704 7.13995 7.89718 7.07504C7.88733 7.01012 7.89036 6.94389 7.9061 6.88015C7.92184 6.8164 7.94998 6.75638 7.98892 6.7035C8.02785 6.65063 8.07682 6.60595 8.13303 6.572C9.30073 5.87006 10.6376 5.49946 12 5.5C13.3628 5.49928 14.7 5.86989 15.868 6.572C15.9265 6.60475 15.9777 6.64891 16.0188 6.70186C16.0598 6.75481 16.0898 6.81547 16.107 6.88024C16.1241 6.945 16.1281 7.01256 16.1186 7.07888C16.1091 7.1452 16.0864 7.20895 16.0518 7.26633C16.0173 7.32371 15.9715 7.37355 15.9173 7.41289C15.863 7.45224 15.8015 7.48028 15.7362 7.49536C15.6709 7.51045 15.6033 7.51225 15.5373 7.50068C15.4713 7.48911 15.4083 7.46439 15.352 7.428M5.46603 11.314C5.44028 11.2499 5.40154 11.1919 5.35226 11.1436C5.30298 11.0952 5.24422 11.0576 5.17968 11.0331C5.11514 11.0086 5.04622 10.9977 4.97727 11.0011C4.90831 11.0045 4.84082 11.0222 4.77903 11.053L3.77903 11.553C3.71824 11.5811 3.66371 11.6211 3.61868 11.6706C3.57364 11.7202 3.53902 11.7783 3.51687 11.8415C3.49471 11.9047 3.48548 11.9717 3.48971 12.0385C3.49394 12.1053 3.51155 12.1706 3.5415 12.2305C3.57144 12.2904 3.61311 12.3437 3.66404 12.3872C3.71496 12.4306 3.7741 12.4634 3.83794 12.4836C3.90179 12.5038 3.96904 12.511 4.0357 12.5047C4.10237 12.4984 4.16709 12.4788 4.22603 12.447L4.76803 12.177L4.78203 12.204C5.04998 12.7197 5.36109 13.2118 5.71203 13.675L5.18403 14.116C5.1336 14.1581 5.09196 14.2097 5.06148 14.2679C5.03099 14.3261 5.01227 14.3897 5.00637 14.4551C4.99446 14.5872 5.03553 14.7187 5.12053 14.8205C5.20553 14.9223 5.32751 14.9862 5.45963 14.9982C5.59175 15.0101 5.72319 14.969 5.82503 14.884L6.35403 14.442C6.90598 15.0426 7.54149 15.5605 8.24103 15.98L7.81403 16.754C7.75282 16.8699 7.73961 17.0053 7.77723 17.1309C7.81485 17.2565 7.9003 17.3623 8.01517 17.4255C8.13004 17.4887 8.26513 17.5042 8.39136 17.4688C8.51759 17.4334 8.62484 17.3498 8.69003 17.236L9.13403 16.43C9.88683 16.7458 10.6873 16.933 11.502 16.984V18C11.502 18.1326 11.5547 18.2598 11.6485 18.3536C11.7422 18.4473 11.8694 18.5 12.002 18.5C12.1346 18.5 12.2618 18.4473 12.3556 18.3536C12.4494 18.2598 12.502 18.1326 12.502 18V16.984C13.3168 16.933 14.1172 16.7458 14.87 16.43L15.314 17.236C15.345 17.2947 15.3874 17.3467 15.4387 17.3888C15.49 17.431 15.5491 17.4625 15.6127 17.4816C15.6763 17.5006 15.7431 17.5068 15.8091 17.4998C15.8751 17.4928 15.9391 17.4727 15.9972 17.4407C16.0554 17.4086 16.1066 17.3654 16.1479 17.3134C16.1891 17.2614 16.2196 17.2017 16.2376 17.1377C16.2555 17.0738 16.2606 17.007 16.2524 16.9411C16.2442 16.8752 16.223 16.8116 16.19 16.754L15.763 15.98C16.4626 15.5605 17.0981 15.0426 17.65 14.442L18.18 14.884C18.2302 14.9279 18.2887 14.9613 18.3519 14.9823C18.4152 15.0033 18.4821 15.0114 18.5485 15.0061C18.615 15.0009 18.6797 14.9824 18.739 14.9518C18.7982 14.9212 18.8507 14.879 18.8934 14.8278C18.936 14.7766 18.968 14.7173 18.9875 14.6536C19.0069 14.5898 19.0134 14.5228 19.0066 14.4564C18.9998 14.3901 18.9798 14.3258 18.9477 14.2674C18.9157 14.2089 18.8723 14.1574 18.82 14.116L18.292 13.676C18.6422 13.2119 18.9533 12.7196 19.222 12.204L19.236 12.176L19.778 12.447C19.8368 12.477 19.9009 12.4951 19.9667 12.5002C20.0325 12.5053 20.0986 12.4974 20.1613 12.4768C20.224 12.4563 20.282 12.4235 20.332 12.3804C20.382 12.3373 20.4229 12.2847 20.4525 12.2257C20.4821 12.1667 20.4997 12.1025 20.5043 12.0367C20.5089 11.9708 20.5004 11.9047 20.4794 11.8422C20.4583 11.7797 20.4251 11.7219 20.3816 11.6723C20.3381 11.6226 20.2852 11.5821 20.226 11.553L19.226 11.053C19.1642 11.022 19.0966 11.0042 19.0275 11.0007C18.9585 10.9972 18.8894 11.008 18.8248 11.0326C18.7601 11.0571 18.7012 11.0948 18.6519 11.1432C18.6025 11.1917 18.5638 11.2498 18.538 11.314L18.536 11.318L18.528 11.338L18.491 11.421C18.4415 11.5303 18.3891 11.6384 18.334 11.745C18.1384 12.1229 17.9161 12.4865 17.669 12.833C17.063 13.69 16.141 14.692 14.859 15.334C13.9718 15.778 12.9922 16.0062 12 16C11.0086 16.0059 10.0297 15.7777 9.14303 15.334C7.86103 14.692 6.93903 13.69 6.33303 12.834C6.08584 12.4869 5.86361 12.1226 5.66803 11.744C5.59901 11.6105 5.53431 11.4747 5.47403 11.337L5.46603 11.317V11.314Z" fill="black"/>
</svg>
