<svg width="24" height="24" viewBox="0 0 24 24" fill="none" xmlns="http://www.w3.org/2000/svg">
<path d="M12 5.5C12.1326 5.5 12.2598 5.55268 12.3536 5.64645C12.4473 5.74021 12.5 5.86739 12.5 6V7.016C13.3148 7.06696 14.1152 7.25423 14.868 7.57L15.312 6.763C15.3437 6.70548 15.3865 6.65477 15.4378 6.61377C15.4891 6.57276 15.548 6.54227 15.6111 6.52402C15.6742 6.50577 15.7402 6.50013 15.8055 6.50742C15.8708 6.51471 15.934 6.53479 15.9915 6.5665C16.049 6.59821 16.0997 6.64095 16.1407 6.69226C16.1818 6.74357 16.2122 6.80246 16.2305 6.86555C16.2487 6.92865 16.2544 6.99472 16.2471 7.06C16.2398 7.12528 16.2197 7.18848 16.188 7.246L15.761 8.02C16.515 8.466 17.141 9.01 17.648 9.558L18.178 9.116C18.2803 9.03487 18.4102 8.99694 18.54 9.01031C18.6699 9.02369 18.7893 9.08731 18.8729 9.18759C18.9565 9.28787 18.9975 9.41684 18.9873 9.54697C18.977 9.6771 18.9163 9.79805 18.818 9.884L18.29 10.324C18.6402 10.7881 18.9513 11.2804 19.22 11.796L19.234 11.824L19.776 11.553C19.8348 11.523 19.8989 11.5049 19.9647 11.4998C20.0305 11.4947 20.0966 11.5026 20.1593 11.5232C20.222 11.5437 20.28 11.5765 20.33 11.6196C20.38 11.6627 20.4209 11.7153 20.4505 11.7743C20.4801 11.8333 20.4976 11.8975 20.5023 11.9633C20.5069 12.0292 20.4984 12.0953 20.4773 12.1578C20.4563 12.2203 20.4231 12.2781 20.3796 12.3277C20.3361 12.3774 20.2832 12.4179 20.224 12.447L19.224 12.947C19.1622 12.978 19.0946 12.9958 19.0255 12.9993C18.9565 13.0028 18.8874 12.992 18.8228 12.9674C18.7581 12.9429 18.6992 12.9052 18.6499 12.8568C18.6005 12.8083 18.5617 12.7502 18.536 12.686L18.534 12.682L18.526 12.662L18.489 12.579C18.4395 12.4697 18.3871 12.3616 18.332 12.255C18.1364 11.8771 17.9141 11.5135 17.667 11.167C17.061 10.31 16.139 9.308 14.857 8.666C13.9704 8.22228 12.9915 7.99409 12 8C11.0085 7.99409 10.0297 8.22228 9.14301 8.666C7.86101 9.308 6.93901 10.31 6.33301 11.166C6.08582 11.5131 5.8636 11.8774 5.66802 12.256C5.59899 12.3895 5.53429 12.5253 5.47401 12.663L5.46601 12.683L5.46402 12.686C5.43827 12.7501 5.39953 12.8081 5.35025 12.8564C5.30096 12.9048 5.2422 12.9424 5.17766 12.9669C5.11312 12.9914 5.04421 13.0023 4.97525 12.9989C4.9063 12.9955 4.8388 12.9778 4.77701 12.947L3.77701 12.447C3.71623 12.4189 3.6617 12.3789 3.61666 12.3294C3.57163 12.2798 3.53701 12.2217 3.51485 12.1585C3.4927 12.0953 3.48346 12.0283 3.48769 11.9615C3.49192 11.8947 3.50953 11.8294 3.53948 11.7695C3.56943 11.7096 3.6111 11.6563 3.66202 11.6128C3.71295 11.5694 3.77208 11.5366 3.83593 11.5164C3.89977 11.4962 3.96702 11.489 4.03369 11.4953C4.10035 11.5016 4.16508 11.5212 4.22401 11.553L4.76601 11.823L4.78001 11.796C5.04796 11.2803 5.35907 10.7882 5.71001 10.325L5.18201 9.884C5.13159 9.84191 5.08994 9.7903 5.05946 9.73212C5.02898 9.67394 5.01025 9.61032 5.00436 9.5449C4.99846 9.47948 5.00551 9.41354 5.02509 9.35085C5.04468 9.28815 5.07643 9.22993 5.11851 9.1795C5.1606 9.12907 5.21221 9.08743 5.2704 9.05695C5.32858 9.02646 5.39219 9.00774 5.45761 9.00184C5.52303 8.99595 5.58897 9.00299 5.65167 9.02258C5.71436 9.04217 5.77259 9.07391 5.82301 9.116L6.35202 9.558C6.90396 8.95745 7.53948 8.43947 8.23902 8.02L7.81201 7.246C7.7803 7.18848 7.76023 7.12528 7.75294 7.06C7.74565 6.99472 7.75129 6.92865 7.76954 6.86555C7.78778 6.80246 7.81828 6.74357 7.85928 6.69226C7.90029 6.64095 7.951 6.59821 8.00851 6.5665C8.06603 6.53479 8.12924 6.51471 8.19451 6.50742C8.25979 6.50013 8.32586 6.50577 8.38896 6.52402C8.45206 6.54227 8.51094 6.57276 8.56226 6.61377C8.61357 6.65477 8.6563 6.70548 8.68801 6.763L9.13201 7.57C9.88482 7.25423 10.6853 7.06696 11.5 7.016V6C11.5 5.86739 11.5527 5.74021 11.6465 5.64645C11.7402 5.55268 11.8674 5.5 12 5.5ZM12 12.5C11.337 12.5 10.7011 12.7634 10.2322 13.2322C9.76341 13.7011 9.50001 14.337 9.50001 15C9.50001 15.663 9.76341 16.2989 10.2322 16.7678C10.7011 17.2366 11.337 17.5 12 17.5C12.6631 17.5 13.2989 17.2366 13.7678 16.7678C14.2366 16.2989 14.5 15.663 14.5 15C14.5 14.337 14.2366 13.7011 13.7678 13.2322C13.2989 12.7634 12.6631 12.5 12 12.5ZM8.50001 15C8.50001 14.5404 8.59054 14.0852 8.76644 13.6606C8.94233 13.236 9.20014 12.8501 9.52514 12.5251C9.85015 12.2001 10.236 11.9423 10.6606 11.7664C11.0853 11.5905 11.5404 11.5 12 11.5C12.4596 11.5 12.9148 11.5905 13.3394 11.7664C13.764 11.9423 14.1499 12.2001 14.4749 12.5251C14.7999 12.8501 15.0577 13.236 15.2336 13.6606C15.4095 14.0852 15.5 14.5404 15.5 15C15.5 15.9283 15.1313 16.8185 14.4749 17.4749C13.8185 18.1313 12.9283 18.5 12 18.5C11.0718 18.5 10.1815 18.1313 9.52514 17.4749C8.86876 16.8185 8.50001 15.9283 8.50001 15Z" fill="black"/>
</svg>
